<svg width="512" height="512" viewBox="0 0 512 512" fill="none" xmlns="http://www.w3.org/2000/svg">
<g clip-path="url(#clip0_1_2)">
<rect width="512" height="512" fill="#222222"/>
<rect width="512" height="512" fill="#222222"/>
<path d="M324.594 115.392L283.383 156.603C281.508 158.477 281.508 161.517 283.383 163.391L324.594 204.602C326.469 206.477 329.508 206.477 331.382 204.602L372.594 163.391C374.468 161.517 374.468 158.477 372.594 156.603L331.382 115.392C329.508 113.517 326.469 113.517 324.594 115.392Z" fill="#F5F5F5"/>
<path d="M379.398 427.398C377.536 425.536 376 421.84 376 419.2V260.8C376 258.16 374.474 254.474 372.602 252.602L331.389 211.389C329.526 209.526 326.464 209.526 324.602 211.389L283.389 252.602C281.526 254.464 281.526 257.526 283.389 259.389L300.602 276.602C302.464 278.464 304 282.16 304 284.8V443.2C304 445.84 305.526 449.526 307.398 451.398L348.611 492.611C350.474 494.474 353.536 494.474 355.398 492.611L396.611 451.398C398.474 449.536 398.474 446.474 396.611 444.611L379.398 427.398Z" fill="#F5F5F5"/>
<path d="M235.398 19.3984C233.536 17.536 230.474 17.536 228.611 19.3984L187.398 60.6112C185.536 62.4736 185.536 65.536 187.398 67.3984L204.611 84.6112C206.474 86.4736 208.01 90.1696 208.01 92.8096V299.21C208.01 301.85 206.483 305.536 204.611 307.408L187.398 324.621C185.536 326.483 185.536 329.546 187.398 331.408L228.611 372.621C230.474 374.483 233.536 374.483 235.398 372.621L276.611 331.408C278.474 329.546 280.01 325.85 280.01 323.21V68.8C280.01 66.16 278.483 62.4736 276.611 60.6016L235.398 19.3984Z" fill="#F5F5F5"/>
<path d="M156.596 163.391L115.385 204.602C113.51 206.477 113.51 209.516 115.385 211.39L156.596 252.602C158.47 254.476 161.51 254.476 163.384 252.602L204.595 211.39C206.47 209.516 206.47 206.477 204.595 204.602L163.384 163.391C161.51 161.516 158.47 161.516 156.596 163.391Z" fill="#F5F5F5"/>
</g>
<defs>
<clipPath id="clip0_1_2">
<rect width="512" height="512" fill="#222222"/>
</clipPath>
</defs>
</svg>
